<svg height="512pt" viewBox="0 0 512 512" width="512pt" xmlns="http://www.w3.org/2000/svg"><g fill="#ff0023"><path d="m256 512c-68.113281 0-132.324219-26.703125-180.8125-75.1875-48.484375-48.484375-75.1875-112.699219-75.1875-180.8125s26.703125-132.328125 75.1875-180.8125c48.488281-48.484375 112.699219-75.1875 180.8125-75.1875s132.328125 26.703125 180.8125 75.1875 75.1875 112.699219 75.1875 180.8125-26.703125 132.328125-75.1875 180.8125-112.699219 75.1875-180.8125 75.1875zm0-482c-124.617188 0-226 101.382812-226 226s101.382812 226 226 226 226-101.382812 226-226-101.382812-226-226-226zm0 0"/><path d="m402.667969 375.246094c-3.960938 0-7.78125-1.570313-10.605469-4.394532l-250.914062-250.914062c-3.121094-3.121094-4.710938-7.453125-4.34375-11.851562.367187-4.394532 2.648437-8.40625 6.242187-10.96875 33.148437-23.628907 72.210937-36.117188 112.953125-36.117188 107.523438 0 195 87.476562 195 195 0 40.746094-12.488281 79.804688-36.117188 112.953125-2.5625 3.59375-6.574218 5.875-10.972656 6.242187-.414062.035157-.828125.050782-1.242187.050782zm-227.085938-263.296875 224.472657 224.46875c13.75-24.492188 20.945312-51.96875 20.945312-80.417969 0-90.980469-74.019531-165-165-165-28.449219 0-55.921875 7.195312-80.417969 20.949219zm0 0"/><path d="m256 451c-107.523438 0-195-87.476562-195-195 0-40.746094 12.488281-79.804688 36.117188-112.953125 2.5625-3.59375 6.574218-5.875 10.972656-6.242187 4.386718-.367188 8.730468 1.222656 11.847656 4.34375l250.914062 250.914062c3.121094 3.117188 4.710938 7.453125 4.34375 11.847656-.367187 4.398438-2.648437 8.410156-6.242187 10.972656-33.148437 23.628907-72.210937 36.117188-112.953125 36.117188zm-144.054688-275.417969c-13.75 24.492188-20.945312 51.96875-20.945312 80.417969 0 90.980469 74.019531 165 165 165 28.449219 0 55.921875-7.195312 80.417969-20.949219zm0 0"/></g></svg>