<svg id="Capa_1" enable-background="new 0 0 512 512" height="512" viewBox="0 0 512 512" width="512" xmlns="http://www.w3.org/2000/svg"><g><path d="m330.247 154.328c-5.857-5.859-15.354-5.857-21.213 0l-83.034 83.031-23.034-23.032c-5.857-5.857-15.355-5.856-21.212.001l-42.425 42.425c-5.858 5.857-5.858 15.355 0 21.213l76.066 76.066c5.853 5.854 15.356 5.858 21.213 0l136.066-136.066c5.854-5.852 5.857-15.356 0-21.213zm-104.247 167.885-54.852-54.854 21.212-21.212 23.034 23.032c5.857 5.857 15.355 5.856 21.212-.001l83.034-83.031 21.212 21.212z"/><path d="m256 0c-140.959 0-256 115.049-256 256 0 140.959 115.049 256 256 256 140.959 0 256-115.049 256-256 0-140.959-115.049-256-256-256zm0 482c-124.617 0-226-101.383-226-226s101.383-226 226-226 226 101.383 226 226-101.383 226-226 226z"/></g></svg>