<svg id="Layer_1" enable-background="new 0 0 511.453 511.453" height="512" viewBox="0 0 511.453 511.453" width="512" xmlns="http://www.w3.org/2000/svg"><g><path d="m414.725 205.25-317.491-.278-80.243 48.648v257.833h477.471v-257.83z" fill="#ffac63"/><path d="m494.462 253.623-79.737-48.373-158.969-.139v306.342h238.706z" fill="#ff8852"/><path d="m86.447 0v416.587l339.078-.324v-416.263z" fill="#fff3dd"/><path d="m425.525 0h-169.769v416.425l169.769-.162z" fill="#ffe7b9"/><g><path d="m271.177 228.115h-30v-36.211c0-12.497 8.566-23.375 20.831-26.455 11.193-2.81 18.736-13.254 17.938-24.834-.811-11.758-10.289-21.235-22.046-22.046-6.716-.47-13.097 1.789-17.975 6.343-4.885 4.56-7.575 10.748-7.575 17.425h-30c0-14.865 6.234-29.21 17.105-39.356 11.024-10.289 25.402-15.382 40.51-14.341 26.617 1.836 48.074 23.293 49.91 49.911 1.755 25.448-14.426 48.476-38.697 55.492v34.072z" fill="#005f90"/></g><path d="m240.472 255.545h31.411v31.41h-31.411z" fill="#005f90"/><path d="m494.462 253.623v257.83h-477.471v-257.833l238.736 118.4z" fill="#ffcd70"/><path d="m494.462 253.623-238.706 118.382v139.448h238.706z" fill="#ffac63"/><g fill="#004c75"><path d="m309.874 138.551c-1.836-26.618-23.293-48.075-49.91-49.911-1.411-.097-2.812-.123-4.208-.114v29.993c.71-.012 1.424.001 2.143.051 11.757.811 21.235 10.288 22.046 22.046.799 11.58-6.745 22.024-17.938 24.834-2.216.557-4.306 1.375-6.252 2.404v60.262h15.421v-34.072c24.272-7.018 40.453-30.045 38.698-55.493z"/><path d="m255.756 255.545h16.126v31.41h-16.126z"/></g></g></svg>