<svg height="512pt" viewBox="0 0 512 512" width="512pt" xmlns="http://www.w3.org/2000/svg"><path d="m448.800781 0h-192.800781c-34.90625 0-63.199219 28.242188-63.199219 63.199219v289.199219c0 12.269531 14.070313 19.445312 24 12l60.265625-45.199219h171.734375c34.90625 0 63.199219-28.242188 63.199219-63.199219v-192.800781c0-34.90625-28.242188-63.199219-63.199219-63.199219zm0 0" fill="#eff6fe"/><path d="m448.800781 0h-96.402343v319.199219h96.402343c34.910157 0 63.199219-28.238281 63.199219-63.199219v-192.800781c0-34.910157-28.238281-63.199219-63.199219-63.199219zm0 0" fill="#d9e4ef"/><path d="m367.398438 231.898438c0 8.285156-6.714844 15-15 15-8.28125 0-15-6.714844-15-15 0-8.28125 6.71875-15 15-15 8.285156 0 15 6.71875 15 15zm0 0" fill="#00d66a"/><path d="m352.382812 72.300781c-30.449218 0-55.148437 24.640625-55.148437 55.148438v.019531c0 8.28125 6.714844 14.992188 15 14.992188s15-6.726563 15-15.011719c0-13.867188 11.214844-25.148438 25.167969-25.148438 13.875 0 25.164062 11.289063 25.164062 25.167969 0 13.875-11.289062 25.164062-25.164062 25.164062-8.285156 0-15 6.71875-15 15v16.066407c0 8.285156 6.714844 15 15 15 8.28125 0 15-6.714844 15-15v-3.136719c23.152344-6.550781 40.164062-27.875 40.164062-53.09375 0-30.421875-24.746094-55.167969-55.183594-55.167969zm0 0" fill="#00d66a"/><path d="m367.398438 231.898438c0 8.28125-6.71875 15-15 15v-30c8.28125 0 15 6.722656 15 15zm0 0" fill="#00b85e"/><path d="m407.570312 127.46875c0 25.222656-17.019531 46.542969-40.171874 53.089844v3.140625c0 8.28125-6.71875 15-15 15v-46.070313c13.882812 0 25.171874-11.289062 25.171874-25.160156 0-13.878906-11.289062-25.167969-25.171874-25.167969v-30c30.429687.007813 55.171874 24.757813 55.171874 55.167969zm0 0" fill="#00b85e"/><path d="m166.238281 311.898438c0 39.160156-31.746093 70.90625-70.90625 70.90625-39.160156 0-70.90625-31.746094-70.90625-70.90625 0-39.164063 31.746094-70.910157 70.90625-70.910157 39.160157 0 70.90625 31.746094 70.90625 70.910157zm0 0" fill="#ffcfbe"/><path d="m166.238281 311.898438c0 39.160156-31.75 70.902343-70.910156 70.902343v-141.8125c39.160156 0 70.910156 31.75 70.910156 70.910157zm0 0" fill="#f9bcaa"/><path d="m95.332031 382.804688c-52.648437 0-95.332031 42.683593-95.332031 95.332031v18.863281c0 8.285156 6.714844 15 15 15h160.667969c8.28125 0 15-6.714844 15-15v-18.863281c0-52.648438-42.683594-95.332031-95.335938-95.332031zm0 0" fill="#ffcc4b"/><path d="m95.332031 382.804688s0 0-.003906 0v129.195312h80.335937c8.285157 0 15-6.714844 15-15v-18.863281c.003907-52.648438-42.679687-95.332031-95.332031-95.332031zm0 0" fill="#ffb826"/></svg>