<svg width="231" height="111" viewBox="0 0 231 111" fill="none" xmlns="http://www.w3.org/2000/svg">
<rect x="8" y="8" width="103" height="103" rx="10" fill="#2F89FC"/>
<rect x="1" y="4" width="101" height="101" rx="9" fill="white" stroke="#2F89FC" stroke-width="2"/>
<path d="M136.6 81V55.08L114.92 24.6H126.84L141.88 45.96L157 24.6H168.44L146.84 55.16V81H136.6Z" fill="#2F89FC"/>
<path d="M162.3 81.5C159.533 81.5 157.15 80.9833 155.15 79.95C153.15 78.9167 151.6 77.45 150.5 75.55C149.433 73.65 148.9 71.4 148.9 68.8C148.9 66.2667 149.417 64.05 150.45 62.15C151.517 60.25 152.967 58.7667 154.8 57.7C156.667 56.6 158.783 56.05 161.15 56.05C164.617 56.05 167.35 57.15 169.35 59.35C171.383 61.55 172.4 64.55 172.4 68.35V70.2H154.9C155.367 74.5667 157.867 76.75 162.4 76.75C163.767 76.75 165.133 76.55 166.5 76.15C167.867 75.7167 169.117 75.05 170.25 74.15L172 78.35C170.833 79.3167 169.367 80.0833 167.6 80.65C165.833 81.2167 164.067 81.5 162.3 81.5ZM161.4 60.3C159.567 60.3 158.083 60.8667 156.95 62C155.817 63.1333 155.133 64.6667 154.9 66.6H167.2C167.067 64.5667 166.5 63.0167 165.5 61.95C164.533 60.85 163.167 60.3 161.4 60.3ZM185.4 81.5C183.633 81.5 182.05 81.1667 180.65 80.5C179.283 79.8 178.2 78.8667 177.4 77.7C176.633 76.5333 176.25 75.2167 176.25 73.75C176.25 71.95 176.716 70.5333 177.65 69.5C178.583 68.4333 180.1 67.6667 182.2 67.2C184.3 66.7333 187.116 66.5 190.65 66.5H192.4V65.45C192.4 63.7833 192.033 62.5833 191.3 61.85C190.566 61.1167 189.333 60.75 187.6 60.75C186.233 60.75 184.833 60.9667 183.4 61.4C181.966 61.8 180.516 62.4333 179.05 63.3L177.25 59.05C178.116 58.45 179.133 57.9333 180.3 57.5C181.5 57.0333 182.75 56.6833 184.05 56.45C185.383 56.1833 186.633 56.05 187.8 56.05C191.366 56.05 194.016 56.8833 195.75 58.55C197.483 60.1833 198.35 62.7333 198.35 66.2V81H192.5V77.1C191.933 78.4667 191.033 79.55 189.8 80.35C188.566 81.1167 187.1 81.5 185.4 81.5ZM186.7 77.2C188.333 77.2 189.683 76.6333 190.75 75.5C191.85 74.3667 192.4 72.9333 192.4 71.2V70.1H190.7C187.566 70.1 185.383 70.35 184.15 70.85C182.95 71.3167 182.35 72.1833 182.35 73.45C182.35 74.55 182.733 75.45 183.5 76.15C184.266 76.85 185.333 77.2 186.7 77.2ZM204.693 81V45.75H210.943V60.1C211.777 58.7667 212.893 57.7667 214.293 57.1C215.693 56.4 217.243 56.05 218.943 56.05C224.71 56.05 227.593 59.4 227.593 66.1V81H221.343V66.4C221.343 64.5 220.977 63.1167 220.243 62.25C219.543 61.3833 218.443 60.95 216.943 60.95C215.11 60.95 213.643 61.5333 212.543 62.7C211.477 63.8333 210.943 65.35 210.943 67.25V81H204.693Z" fill="#2F89FC"/>
<path d="M57.6087 48.9802C57.0919 44.7941 56.8335 42.701 58.0275 41.3505C59.2215 40 61.3305 40 65.5484 40H75.1137C79.4735 40 81.6534 40 82.8511 41.4053C84.0489 42.8107 83.7035 44.963 83.0126 49.2677L78.4458 77.7221C78.2511 78.9356 78.1537 79.5423 78.2357 80.1346C78.2639 80.3375 78.3075 80.538 78.3664 80.7343C78.538 81.3071 78.8789 81.8184 79.5606 82.8409V82.8409C82.4324 87.1487 83.8683 89.3025 83.3816 91.0649C83.2234 91.6377 82.9395 92.168 82.5507 92.6174C81.3543 94 78.7657 94 73.5885 94H66.9591C61.4945 94 58.7622 94 57.5641 92.354C57.4112 92.1439 57.2791 91.9195 57.1697 91.6838C56.3127 89.8371 57.6396 87.4486 60.2935 82.6717V82.6717C60.862 81.6484 61.1462 81.1368 61.2726 80.576C61.2899 80.4992 61.3049 80.422 61.3177 80.3443C61.4107 79.777 61.339 79.1961 61.1956 78.0343L57.6087 48.9802Z" fill="#2F89FC"/>
<path d="M18.6087 48.9802C18.0919 44.7941 17.8335 42.701 19.0275 41.3505C20.2215 40 22.3305 40 26.5484 40H36.1137C40.4735 40 42.6534 40 43.8511 41.4053C45.0489 42.8107 44.7035 44.963 44.0126 49.2677L39.4458 77.7221C39.2511 78.9356 39.1537 79.5423 39.2357 80.1346C39.2639 80.3375 39.3075 80.538 39.3664 80.7343C39.538 81.3071 39.8789 81.8184 40.5606 82.8409V82.8409C43.4324 87.1487 44.8683 89.3025 44.3816 91.0649C44.2234 91.6377 43.9395 92.168 43.5507 92.6174C42.3543 94 39.7657 94 34.5885 94H27.9591C22.4945 94 19.7622 94 18.5641 92.354C18.4112 92.1439 18.2791 91.9195 18.1697 91.6838C17.3127 89.8371 18.6396 87.4486 21.2935 82.6717V82.6717C21.862 81.6484 22.1462 81.1368 22.2726 80.576C22.2899 80.4992 22.3049 80.422 22.3177 80.3443C22.4107 79.777 22.339 79.1961 22.1956 78.0343L18.6087 48.9802Z" fill="#2F89FC"/>
<circle cx="71" cy="28" r="8" fill="#2F89FC"/>
<circle cx="32" cy="28" r="8" fill="#2F89FC"/>
<path d="M68.5 45H71.5L73 74H67L68.5 45Z" fill="white"/>
<path d="M29.5 45H32.5L34 74H28L29.5 45Z" fill="white"/>
</svg>
